<?xml version="1.0" standalone="no"?>
<!DOCTYPE svg PUBLIC "-//W3C//DTD SVG 20010904//EN"
 "http://www.w3.org/TR/2001/REC-SVG-20010904/DTD/svg10.dtd">
<svg version="1.0" xmlns="http://www.w3.org/2000/svg"
 width="512.000000pt" height="512.000000pt" viewBox="0 0 512.000000 512.000000"
 preserveAspectRatio="xMidYMid meet">

<g transform="translate(0.000000,512.000000) scale(0.100000,-0.100000)"
fill="#000000" stroke="none">
<path d="M3748 4646 c-81 -29 -157 -83 -207 -146 -20 -25 -155 -276 -300 -557
l-264 -511 -80 -7 c-246 -21 -440 -126 -619 -335 -49 -56 -88 -107 -88 -114 0
-7 8 -20 18 -28 36 -32 1536 -809 1556 -806 16 2 28 24 54 93 56 148 72 227
72 345 0 132 -23 230 -81 340 l-41 80 24 33 c14 17 141 254 282 525 223 427
260 503 273 570 42 204 -63 409 -256 500 -69 33 -85 37 -176 40 -86 2 -110 -1
-167 -22z"/>
<path d="M1148 3505 c-89 -29 -149 -134 -129 -226 42 -186 293 -216 372 -44
73 157 -77 322 -243 270z"/>
<path d="M622 2898 c-59 -13 -126 -78 -142 -137 -31 -117 50 -237 169 -249
198 -19 297 214 147 345 -48 43 -104 56 -174 41z"/>
<path d="M1875 2679 c-222 -195 -529 -349 -833 -417 -146 -32 -192 -57 -236
-122 -39 -59 -51 -121 -37 -185 15 -68 91 -159 254 -304 148 -132 175 -152
201 -146 246 52 318 80 438 167 70 50 87 58 126 58 60 0 106 -29 127 -82 23
-58 13 -100 -34 -147 -68 -68 -203 -151 -294 -180 -40 -13 -61 -40 -51 -65 6
-17 258 -187 392 -266 72 -42 72 -42 100 -24 119 77 303 262 399 400 91 132
111 152 154 165 52 16 122 -10 150 -55 35 -54 23 -117 -40 -212 -84 -124 -156
-210 -273 -325 -106 -104 -124 -134 -95 -157 20 -16 221 -101 341 -144 189
-67 307 -49 412 63 68 72 279 434 395 674 74 153 199 449 199 469 0 22 -28 39
-275 168 -132 69 -504 263 -826 432 -322 168 -592 306 -600 306 -8 0 -50 -32
-94 -71z"/>
</g>
</svg>
